<svg width="24" height="24" viewBox="0 0 24 24" fill="none" xmlns="http://www.w3.org/2000/svg">
<path d="M15.0027 22.4726C15.0062 22.4394 15.008 22.4056 15.008 22.3715V14.2698H17.7775C18.2215 14.2698 18.6212 13.9774 18.6861 13.5381C18.7935 12.8115 18.7479 12.1507 18.6784 11.6809C18.6147 11.2495 18.2303 10.9656 17.7943 10.9656H15.008C15.008 8.46885 15.4235 8.10555 17.7654 8.0601C18.2148 8.0514 18.6182 7.7547 18.6834 7.31C18.793 6.5625 18.7493 5.9094 18.6805 5.44995C18.617 5.02555 18.2365 4.7489 17.8074 4.75265C13.6681 4.78875 11.3106 5.27815 11.3106 10.9656H9.16625C8.7495 10.9656 8.3795 11.2268 8.31645 11.6388C8.24855 12.0826 8.2075 12.7259 8.32085 13.5084C8.38635 13.9605 8.79295 14.2698 9.24975 14.2698H11.3106V22.497C8.10565 22.4759 5.8116 22.3494 4.31785 22.2281C2.67393 22.0945 1.40551 20.826 1.27194 19.1821C1.13904 17.5463 1 14.9507 1 11.25C1 7.5493 1.13904 4.95365 1.27194 3.31785C1.40551 1.67392 2.67392 0.40551 4.31785 0.271945C5.95365 0.139035 8.5493 0 12.25 0C15.9507 0 18.5463 0.13904 20.1821 0.271945C21.826 0.40551 23.0945 1.67393 23.2281 3.31785C23.361 4.95365 23.5 7.5493 23.5 11.25C23.5 14.9507 23.361 17.5463 23.2281 19.1821C23.0945 20.8261 21.826 22.0945 20.1821 22.2281C18.9869 22.3252 17.2793 22.4256 15.0027 22.4726Z" fill="black"/>
<rect x="23" width="1" height="1" fill="black"/>
</svg>
