<?xml version="1.0" encoding="utf-8"?>
<!-- Generator: Adobe Illustrator 26.5.0, SVG Export Plug-In . SVG Version: 6.00 Build 0)  -->
<svg version="1.1" id="Слой_1" xmlns="http://www.w3.org/2000/svg" xmlns:xlink="http://www.w3.org/1999/xlink" x="0px" y="0px"
	 viewBox="0 0 22 22" style="enable-background:new 0 0 22 22;" xml:space="preserve">
<style type="text/css">
	.st0{fill-rule:evenodd;clip-rule:evenodd;}
</style>
<path class="st0" d="M4,0C1.8,0,0,1.8,0,4v14c0,2.2,1.8,4,4,4h14c2.2,0,4-1.8,4-4V4c0-2.2-1.8-4-4-4H4z M3.5,8c0-2.5,2-4.5,4.5-4.5
	h6c2.5,0,4.5,2,4.5,4.5v6c0,2.5-2,4.5-4.5,4.5H8c-2.5,0-4.5-2-4.5-4.5V8z M8,4.5C6.1,4.5,4.5,6.1,4.5,8v6c0,1.9,1.6,3.5,3.5,3.5h6
	c1.9,0,3.5-1.6,3.5-3.5V8c0-1.9-1.6-3.5-3.5-3.5H8z M16,7.2C16,7.6,15.6,8,15.2,8c-0.5,0-0.8-0.4-0.8-0.8c0-0.5,0.4-0.8,0.8-0.8
	C15.6,6.3,16,6.7,16,7.2z M7.2,11c0-2.1,1.7-3.8,3.8-3.8c2.1,0,3.8,1.7,3.8,3.8c0,2.1-1.7,3.8-3.8,3.8C8.9,14.8,7.2,13.1,7.2,11z
	 M11,8.2c-1.6,0-2.8,1.3-2.8,2.8s1.3,2.8,2.8,2.8s2.8-1.3,2.8-2.8S12.6,8.2,11,8.2z"/>
<rect y="21" width="1" height="1"/>
</svg>
