<?xml version="1.0" encoding="utf-8"?>
<!-- Generator: Adobe Illustrator 26.5.0, SVG Export Plug-In . SVG Version: 6.00 Build 0)  -->
<svg version="1.1" id="Слой_1" xmlns="http://www.w3.org/2000/svg" xmlns:xlink="http://www.w3.org/1999/xlink" x="0px" y="0px"
	 viewBox="0 0 22 22" style="enable-background:new 0 0 22 22;" xml:space="preserve">
<style type="text/css">
	.st0{fill-rule:evenodd;clip-rule:evenodd;}
</style>
<path class="st0" d="M4,0C1.8,0,0,1.8,0,4v14c0,2.2,1.8,4,4,4h14c2.2,0,4-1.8,4-4V4c0-2.2-1.8-4-4-4H4z M19,11c0,4.4-3.6,8-8,8
	c-4.4,0-8-3.6-8-8c0-4.4,3.6-8,8-8C15.4,3,19,6.6,19,11z M5.5,10.8c0-0.1,0-0.1,0.1-0.2l9-3.4c0.1,0,0.1,0,0.2,0
	c0,0,0.1,0.1,0.1,0.2l-1.8,7.5C13.1,15,13,15,13,15c-0.1,0-0.1,0-0.2,0l-3.4-2.7l3-2.7c0,0,0-0.1,0-0.1c0,0-0.1-0.1-0.1,0l-4.5,2.3
	l-2.2-0.8C5.6,10.9,5.5,10.8,5.5,10.8z"/>
<rect width="1" height="1"/>
</svg>
