<?xml version="1.0" encoding="utf-8"?>
<!-- Generator: Adobe Illustrator 26.5.0, SVG Export Plug-In . SVG Version: 6.00 Build 0)  -->
<svg version="1.1" id="Слой_1" xmlns="http://www.w3.org/2000/svg" xmlns:xlink="http://www.w3.org/1999/xlink" x="0px" y="0px"
	 viewBox="0 0 22 22" style="enable-background:new 0 0 22 22;" xml:space="preserve">
<style type="text/css">
	.st0{fill-rule:evenodd;clip-rule:evenodd;}
</style>
<rect x="21" y="21" width="1" height="1"/>
<path class="st0" d="M4,0C1.8,0,0,1.8,0,4v14c0,2.2,1.8,4,4,4h14c2.2,0,4-1.8,4-4V4c0-2.2-1.8-4-4-4H4z M5.9,5.9v0.4
	c0,1.3,0.4,2.8,1.1,4.1c0.6,1.1,1.5,2.1,2.5,2.5v-7h2.9v3.4c0.7-0.2,1.3-0.5,1.8-1c0.6-0.5,1.1-1.2,1.1-2.1V5.9h2.9v0.4
	c0,1.9-1.1,3.5-2.5,4.6c0.7,0.5,1.4,1.1,2,1.8c0.7,0.9,1.2,1.9,1.2,3.1v0.4h-2.9l0-0.4c0-0.8-0.6-1.5-1.5-2.1
	c-0.7-0.5-1.5-0.8-2.2-1v3.5H11c-2.5,0-4.5-1.4-5.9-3.3C3.8,10.9,3,8.4,3,6.3V5.9L5.9,5.9z"/>
</svg>
