<?xml version="1.0" standalone="no"?>
<!DOCTYPE svg PUBLIC "-//W3C//DTD SVG 20010904//EN"
 "http://www.w3.org/TR/2001/REC-SVG-20010904/DTD/svg10.dtd">
<svg version="1.0" xmlns="http://www.w3.org/2000/svg"
 width="512.000000pt" height="512.000000pt" viewBox="0 0 512.000000 512.000000"
 preserveAspectRatio="xMidYMid meet">

<g transform="translate(0.000000,512.000000) scale(0.100000,-0.100000)"
fill="#000000" stroke="none">
<path d="M1114 4846 c-442 -82 -767 -407 -838 -841 -15 -90 -17 -238 -14
-1490 l3 -1390 28 -100 c100 -365 367 -632 736 -733 l96 -27 1435 0 1435 0
100 27 c365 101 632 368 733 737 l27 96 0 1435 0 1435 -27 96 c-101 369 -368
636 -733 736 l-100 28 -1405 2 c-1112 1 -1420 -1 -1476 -11z m2909 -992 c60
-20 131 -84 165 -148 36 -70 38 -188 4 -257 -31 -64 -85 -117 -151 -148 l-56
-26 -1425 0 -1425 0 -56 26 c-68 32 -118 81 -150 145 -36 72 -34 189 3 260 32
62 104 127 161 148 36 12 235 15 1463 15 1268 1 1425 -1 1467 -15z m29 -1027
c107 -53 163 -144 163 -267 0 -123 -56 -214 -163 -267 l-57 -28 -1414 -3
c-1563 -3 -1475 -6 -1563 61 -187 143 -139 441 84 518 51 18 118 18 1473 16
l1420 -2 57 -28z m-11 -1008 c68 -32 118 -81 150 -145 36 -72 34 -189 -3 -260
-15 -28 -48 -70 -73 -92 -88 -77 28 -72 -1555 -72 -1583 0 -1467 -5 -1555 72
-114 100 -136 261 -54 389 35 55 89 95 162 120 49 18 125 18 1462 16 l1410 -2
56 -26z"/>
</g>
</svg>
